<?xml version="1.0" standalone="no"?>
<!DOCTYPE svg PUBLIC "-//W3C//DTD SVG 20010904//EN"
 "http://www.w3.org/TR/2001/REC-SVG-20010904/DTD/svg10.dtd">
<svg version="1.0" xmlns="http://www.w3.org/2000/svg"
 width="700.000000pt" height="700.000000pt" viewBox="0 0 700.000000 700.000000"
 preserveAspectRatio="xMidYMid meet">
<metadata>
Created by potrace 1.11, written by Peter Selinger 2001-2013
</metadata>
<g transform="translate(0.000000,700.000000) scale(0.100000,-0.100000)"
fill="#000000" stroke="none">
<path d="M3340 6684 c-405 -29 -779 -122 -1146 -284 -184 -82 -281 -135 -449
-246 -781 -515 -1277 -1302 -1427 -2257 -19 -123 -22 -181 -22 -437 0 -250 4
-316 22 -431 93 -598 308 -1105 666 -1569 103 -134 390 -423 526 -530 597
-469 1348 -719 2095 -697 1122 34 2131 629 2694 1591 223 380 366 804 428
1265 23 168 22 543 -1 731 -155 1268 -998 2305 -2196 2700 -228 76 -432 120
-680 150 -94 11 -423 20 -510 14z m-1110 -1075 c103 -207 151 -313 143 -316
-27 -10 -213 -148 -297 -221 -309 -268 -554 -678 -661 -1102 -185 -735 36
-1532 574 -2071 325 -324 743 -536 1216 -616 168 -28 516 -25 687 5 956 171
1666 903 1804 1860 l18 122 329 0 330 0 -7 -72 c-69 -736 -466 -1479 -1041
-1952 -137 -113 -219 -170 -365 -256 -827 -490 -1943 -508 -2805 -45 -710 381
-1246 1099 -1429 1917 -51 226 -60 323 -60 613 0 291 11 393 70 635 171 701
612 1333 1212 1737 59 40 112 73 117 73 6 0 80 -140 165 -311z m1517 -364
c765 -101 1363 -632 1547 -1373 39 -158 51 -258 51 -427 0 -88 -6 -198 -14
-245 -27 -175 -92 -393 -150 -508 l-26 -52 -310 195 c-171 107 -312 200 -314
206 -2 6 4 29 12 52 137 369 38 806 -248 1092 -216 216 -540 330 -837 295
-356 -41 -651 -240 -816 -550 -206 -388 -142 -873 157 -1192 74 -79 74 -80 59
-106 -9 -15 -93 -164 -188 -332 -95 -168 -178 -310 -184 -317 -27 -29 -273
195 -393 359 -248 337 -373 706 -373 1103 0 627 330 1216 866 1546 340 209
775 304 1161 254z m18 -1159 c108 -34 195 -88 274 -167 79 -78 132 -165 168
-274 22 -68 26 -97 26 -200 0 -103 -4 -132 -26 -200 -60 -181 -177 -320 -338
-399 -205 -101 -414 -101 -619 1 -110 55 -231 179 -288 294 -57 115 -75 206
-69 339 4 85 11 121 36 189 88 238 282 398 541 445 64 12 217 -3 295 -28z"/>
</g>
</svg>
