<svg width="185" height="188" xmlns="http://www.w3.org/2000/svg">

 <g>
  <title>background</title>
  <rect fill="none" id="canvas_background" height="190" width="187" y="-1" x="-1"/>
 </g>
 <g>
  <title>Layer 1</title>
  <g id="svg_1">
   <g id="svg_2">
    <path id="svg_5" stroke-width="3.3036" stroke="#333" fill-rule="evenodd" fill="#7f7f7f" d="m56.27399,30.35283a26.1178,26.1178 0 1 0 -52.23654,0a26.1178,26.1178 0 1 0 52.23654,0z"/>
    <path id="svg_6" stroke-width="3.3036" stroke-linejoin="round" stroke-linecap="round" stroke="#333" fill-rule="evenodd" fill="#b3b3b3" d="m56.27399,30.35283a26.1178,26.1178 0 1 1 -37.83491,-23.34247l11.71617,23.34247l26.11874,0z"/>
    <path id="svg_7" stroke-width="5.0297" stroke="#333" fill-rule="evenodd" fill="#b3b3b3" d="m47.43838,30.48004a17.15499,17.15499 0 1 0 -34.3106,0a17.15499,17.15499 0 1 0 34.3106,0z"/>
    <path id="svg_8" stroke-width="5.0297" stroke-linejoin="round" stroke-linecap="round" stroke="#333" fill-rule="evenodd" fill="#4c4c4c" d="m44.79284,39.63256a17.15499,17.15499 0 0 1 -22.99344,5.75818l8.48337,-14.91082l14.51007,9.15264z"/>
    <path id="svg_9" stroke-width="11.725" stroke="#333" fill-rule="evenodd" fill="#fff" d="m37.89728,30.48031a7.35916,7.35916 0 1 0 -14.71859,0a7.35916,7.35916 0 1 0 14.71859,0z"/>
   </g>
   <text xml:space="preserve" text-anchor="start" font-family="Helvetica, Arial, sans-serif" font-size="50" id="svg_3" y="49.365943" x="56.373538" stroke-opacity="null" stroke-width="0" stroke="null" fill="#333333">HVW</text>
  </g>
  <g id="svg_29">
   <g id="svg_30">
    <path id="svg_31" stroke-width="3.3036" stroke="#333" fill-rule="evenodd" fill="#7f7f7f" d="m56.27399,93.118272a26.1178,26.1178 0 1 0 -52.23654,0a26.1178,26.1178 0 1 0 52.23654,0z"/>
    <path id="svg_32" stroke-width="3.3036" stroke-linejoin="round" stroke-linecap="round" stroke="#333" fill-rule="evenodd" fill="#b3b3b3" d="m56.27399,93.118272a26.1178,26.1178 0 1 1 -37.83491,-23.34247l11.71617,23.34247l26.11874,0z"/>
    <path id="svg_33" stroke-width="5.0297" stroke="#333" fill-rule="evenodd" fill="#b3b3b3" d="m47.43838,93.245482a17.15499,17.15499 0 1 0 -34.3106,0a17.15499,17.15499 0 1 0 34.3106,0z"/>
    <path id="svg_34" stroke-width="5.0297" stroke-linejoin="round" stroke-linecap="round" stroke="#333" fill-rule="evenodd" fill="#4c4c4c" d="m44.79284,102.398002a17.15499,17.15499 0 0 1 -22.99344,5.75818l8.48337,-14.91082l14.51007,9.15264z"/>
    <path id="svg_35" stroke-width="11.725" stroke="#333" fill-rule="evenodd" fill="#fff" d="m37.89728,93.245752a7.35916,7.35916 0 1 0 -14.71859,0a7.35916,7.35916 0 1 0 14.71859,0z"/>
   </g>
   <text xml:space="preserve" text-anchor="start" font-family="Helvetica, Arial, sans-serif" font-size="50" id="svg_4" y="112" x="56" stroke-opacity="null" stroke-width="0" stroke="null" fill="#333333">HVW</text>
  </g>
  <g id="svg_57">
   <g id="svg_58">
    <path id="svg_59" stroke-width="3.3036" stroke="#333" fill-rule="evenodd" fill="#7f7f7f" d="m55.236538,156.12729a26.1178,26.1178 0 1 0 -52.23654,0a26.1178,26.1178 0 1 0 52.23654,0z"/>
    <path id="svg_60" stroke-width="3.3036" stroke-linejoin="round" stroke-linecap="round" stroke="#333" fill-rule="evenodd" fill="#b3b3b3" d="m55.236538,156.12729a26.1178,26.1178 0 1 1 -37.83491,-23.34247l11.71617,23.34247l26.11874,0z"/>
    <path id="svg_61" stroke-width="5.0297" stroke="#333" fill-rule="evenodd" fill="#b3b3b3" d="m46.400928,156.2545a17.15499,17.15499 0 1 0 -34.3106,0a17.15499,17.15499 0 1 0 34.3106,0z"/>
    <path id="svg_62" stroke-width="5.0297" stroke-linejoin="round" stroke-linecap="round" stroke="#333" fill-rule="evenodd" fill="#4c4c4c" d="m43.755388,165.40702a17.15499,17.15499 0 0 1 -22.99344,5.75818l8.48337,-14.91082l14.51007,9.15264z"/>
    <path id="svg_63" stroke-width="11.725" stroke="#333" fill-rule="evenodd" fill="#fff" d="m36.859828,156.25477a7.35916,7.35916 0 1 0 -14.71859,0a7.35916,7.35916 0 1 0 14.71859,0z"/>
   </g>
   <g id="svg_77"/>
   <text xml:space="preserve" text-anchor="start" font-family="Helvetica, Arial, sans-serif" font-size="50" id="svg_10" y="175" x="56" stroke-opacity="null" stroke-width="0" stroke="null" fill="#e5e5e5">HVW</text>
  </g>
 </g>
</svg>