<?xml version="1.0"?>
<svg width="730" height="340" xmlns="http://www.w3.org/2000/svg" xmlns:svg="http://www.w3.org/2000/svg" xmlns:xlink="http://www.w3.org/1999/xlink">
 <!-- Created with SVG-edit - https://github.com/SVG-Edit/svgedit-->
 <defs>
  <symbol id="svg_1" viewBox="0 0 60 60" xmlns="http://www.w3.org/2000/svg">
   <path d="m62.857,37.224a27.611,27.611 0 1 0 -55.223,0a27.611,27.611 0 1 0 55.223,0z" fill="#7f7f7f" fill-rule="evenodd" stroke="#333" stroke-width="3.3036" transform="matrix(.94592 0 0 .94592 -3.1837 -4.8581)"/>
   <path d="m62.857,37.224a27.611,27.611 0 1 1 -39.998,-24.677l12.386,24.677l27.612,0z" fill="#b3b3b3" fill-rule="evenodd" stroke="#333" stroke-linecap="round" stroke-linejoin="round" stroke-width="3.3036" transform="matrix(.94592 0 0 .94592 -3.1837 -4.8581)"/>
   <path d="m62.857,37.224a27.611,27.611 0 1 0 -55.223,0a27.611,27.611 0 1 0 55.223,0z" fill="#b3b3b3" fill-rule="evenodd" stroke="#333" stroke-width="5.0297" transform="matrix(.62131 0 0 .62131 8.3847 7.3524)"/>
   <path d="m58.599,51.955a27.611,27.611 0 0 1 -37.008,9.2678l13.654,-23.999l23.354,14.7312z" fill="#4c4c4c" fill-rule="evenodd" stroke="#333" stroke-linecap="round" stroke-linejoin="round" stroke-width="5.0297" transform="matrix(.62131 0 0 .62131 8.3847 7.3524)"/>
   <path d="m62.857,37.224a27.611,27.611 0 1 0 -55.223,0a27.611,27.611 0 1 0 55.223,0z" fill="#fff" fill-rule="evenodd" stroke="#333" stroke-width="11.725" transform="matrix(.26653 0 0 .26653 21.144 20.559)"/>
  </symbol>
 </defs>
 <g class="layer">
  <title>Layer 1</title>
  <use id="svg_2" transform="matrix(0.704303 0 0 0.704303 598.267 559.24)" x="-1043.3938" xlink:href="#svg_1" y="-722.321525"/>
  <g id="svg_3"/>
  <text fill="#3f3f3f" font-family="Sans-serif" font-size="196" id="svg_4" stroke="#000000" stroke-width="0" text-anchor="middle" x="450.5" xml:space="preserve" y="245.5">HVW</text>
 </g>
</svg>